inDegrees=yes
name=ik_S57_A09_T01
DataType=double
version=3
OpenSimVersion=4.3-2021-08-27-4bc7ad9
endheader
time	pelvis_tilt	pelvis_list	pelvis_rotation	pelvis_tx	pelvis_ty	pelvis_tz	hip_flexion_r	hip_adduction_r	hip_rotation_r	knee_angle_r	knee_angle_r_beta	ankle_angle_r	subtalar_angle_r	mtp_angle_r	hip_flexion_l	hip_adduction_l	hip_rotation_l	knee_angle_l	knee_angle_l_beta	ankle_angle_l	subtalar_angle_l	mtp_angle_l	lumbar_extension	lumbar_bending	lumbar_rotation	arm_flex_r	arm_add_r	arm_rot_r	elbow_flex_r	pro_sup_r	wrist_flex_r	wrist_dev_r	arm_flex_l	arm_add_l	arm_rot_l	elbow_flex_l	pro_sup_l	wrist_flex_l	wrist_dev_l
19.79999999999967	-7.608017317830939	-5.564550100354005	29.22298243166851	0	0.9399999999999999	0	41.46098499961562	-10.63143307190377	-10.1911357295552	54.79778142138422	0.9564017085913329	0	0	0	41.46098499961562	-10.63143307190377	-10.1911357295552	54.79778142138422	0.9564017085913329	0	0	0	-8.76889394294723	-3.956152668785264	1.998505288283299	58.15066146503875	3.287847915403951	-0.02378100265232158	63.32641082776074	105.6296598834653	0	0	54.78072955358748	-25.39112400534256	28.20089419662717	70.97102225305595	93.88016952717578	0	0
19.81999999999967	-7.590393090721823	-5.567464991444464	29.25047757810224	0	0.9399999999999999	0	41.48175651281461	-10.62084955363101	-10.18886652128112	54.79859542119524	0.9564159155681458	0	0	0	41.48175651281461	-10.62084955363101	-10.18886652128112	54.79859542119524	0.9564159155681458	0	0	0	-8.757313395368568	-3.955374948370498	1.990032325752378	58.11754616524775	3.287276519168593	-0.00447824932806983	63.41528649655803	105.5575713849808	0	0	54.74444550278192	-25.37569545919941	28.22460828552264	70.97464150126186	93.74412282155058	0	0
19.83999999999967	-7.539673581494015	-5.606624589481688	29.2579885301102	0	0.9399999999999999	0	41.48291266373852	-10.6201401616816	-10.18872800320125	54.79863977756096	0.9564166897327717	0	0	0	41.48291266373852	-10.6201401616816	-10.18872800320125	54.79863977756096	0.9564166897327717	0	0	0	-8.731383092341318	-4.014977391660336	1.987555662615992	58.11030365411358	3.282662444546454	0.01563296089863252	63.52466702355194	105.6202096100763	0	0	54.80885002902664	-25.42975650167402	28.37231757462291	70.82094063967284	93.69313031420982	0	0
19.85999999999967	-7.527491404604588	-5.618464156262299	29.25631729662017	0	0.9399999999999999	0	41.48331419369485	-10.61989878752708	-10.18868053649092	54.79865547233434	0.9564169636582426	0	0	0	41.48331419369485	-10.61989878752708	-10.18868053649092	54.79865547233434	0.9564169636582426	0	0	0	-8.726943365728335	-4.030025319280224	1.980098609795565	58.09812879156978	3.250962162376764	0.1005947057597243	63.59543413947446	105.6672508892114	0	0	54.85642460915531	-25.44468748035463	28.40271090162086	70.77843765905988	93.72624264685	0	0
19.87999999999967	-7.507895397205298	-5.614836198532903	29.23298824560112	0	0.9399999999999999	0	41.49460453855294	-10.61382533541465	-10.18741495455441	54.79909476042065	0.9564246306817136	0	0	0	41.49460453855294	-10.61382533541465	-10.18741495455441	54.79909476042065	0.9564246306817136	0	0	0	-8.709275735798032	-4.030249264916811	1.975701897579448	58.1036876166023	3.179134750977541	0.1174487835721597	63.6716709588822	105.6041715758894	0	0	54.83185447385362	-25.46892004284797	28.42065956531562	70.74472521556638	93.71416121464446	0	0
19.89999999999966	-7.487158843543299	-5.625139659713916	29.20260844303585	0	0.9399999999999999	0	41.49971410548122	-10.61204663827482	-10.18694297028705	54.79930309582578	0.9564282668204817	0	0	0	41.49971410548122	-10.61204663827482	-10.18694297028705	54.79930309582578	0.9564282668204817	0	0	0	-8.695957166503199	-4.047818443815116	1.978566376659495	58.06778050950464	3.21387375427466	0.1042748717611995	63.69668430462175	105.5749472128641	0	0	54.86999885843895	-25.49706336974533	28.49849690522233	70.60925844397384	93.61456910429727	0	0
19.91999999999966	-7.471468515534158	-5.623882124868181	29.16268044149364	0	0.9399999999999999	0	41.49997848703808	-10.61188929795007	-10.1869118994964	54.79931346430963	0.9564284477846633	0	0	0	41.49997848703808	-10.61188929795007	-10.1869118994964	54.79931346430963	0.9564284477846633	0	0	0	-8.681248205099953	-4.055149125862959	1.981027543927474	58.14741497548383	3.115549078012978	0.13448570038987	63.72353279214789	105.5714765499171	0	0	54.88587312693922	-25.56935028945117	28.58011661199578	70.56707192142132	93.58337716712521	0	0
19.93999999999966	-7.468287036184777	-5.656418795470395	29.10424807604558	0	0.9399999999999999	0	41.50082221544936	-10.61138367498434	-10.18681227811528	54.79934632538167	0.956429021318566	0	0	0	41.50082221544936	-10.61138367498434	-10.18681227811528	54.79934632538167	0.956429021318566	0	0	0	-8.692833666265795	-4.087918682165393	1.995463614806676	58.21844767093216	3.092767923209089	0.1559095362318782	63.80502307904527	105.1977660949526	0	0	55.08880533191397	-25.73050733369745	28.84689076858129	70.50050976242466	93.5138806023751	0	0
19.95999999999966	-7.46719582765583	-5.641563738165323	29.08893850889756	0	0.9399999999999999	0	41.50118986786055	-10.61116701211565	-10.18676934511219	54.79936086827826	0.9564292751399943	2.212162410380152e-49	0	0	41.50118986786055	-10.61116701211565	-10.18676934511219	54.79936086827826	0.9564292751399943	2.212162410380152e-49	0	0	-8.683638201050766	-4.077983315261315	2.009386858737011	58.25397360984187	3.040516381413096	0.2276287295735456	63.80424300879304	105.1525682334674	0	0	55.14221359381904	-25.753516582515	28.96869411070931	70.50350542042685	93.49986843708221	0	0
19.97999999999966	-7.464366211693251	-5.669239244053889	29.05945014637977	0	0.9399999999999999	0	41.5021074058221	-10.6106124957706	-10.18666038623309	54.79939629402324	0.9564298934358841	0	0	0	41.5021074058221	-10.6106124957706	-10.18666038623309	54.79939629402324	0.9564298934358841	0	0	0	-8.692905757181729	-4.107282320670629	2.029343170441819	58.39708918958351	3.057571799242094	0.1450584289215682	63.82420247509346	104.8224176445315	0	0	55.28770556012505	-25.80554903457805	29.2020553510931	70.45503399809961	93.41791392878625	0	0
19.99999999999966	-7.468666577308912	-5.675799356812144	29.0471949903781	0	0.9399999999999999	0	41.50308943613058	-10.6100165076328	-10.18654343750073	54.79943404754628	0.9564305523591654	0	0	0	41.50308943613058	-10.6100165076328	-10.18654343750073	54.79943404754628	0.9564305523591654	0	0	0	-8.697699988450655	-4.115735028301266	2.055417777751217	58.52598083325343	2.995730922259172	0.1106281706663984	63.93070438337913	104.7946088037215	0	0	55.42636844672505	-25.79329883399832	29.38713736101409	70.38370446243192	93.28804406622692	0	0
20.01999999999966	-7.450489697927038	-5.6835788300363	29.04615971983793	0	0.9399999999999999	0	41.50331546705116	-10.60988463121378	-10.18651720874417	54.79944305873587	0.9564307096340934	0	0	0	41.50331546705116	-10.60988463121378	-10.18651720874417	54.79944305873587	0.9564307096340934	0	0	0	-8.685331298220515	-4.131755612272735	2.054926872998047	58.61426624639127	2.947581708268539	0.1616066581322321	63.97772405167348	104.8284757239396	0	0	55.40888620324262	-25.82050090406765	29.42494893804016	70.38345646296706	93.30395721762602	0	0
